nColumns=19
nRows=86
DataType=double
version=3
OpenSimVersion=4.1
endheader
time	ground_force_calcn_r_vx	ground_force_calcn_r_vy	ground_force_calcn_r_vz	ground_force_calcn_r_px	ground_force_calcn_r_py	ground_force_calcn_r_pz	ground_force_calcn_r_mx	ground_force_calcn_r_my	ground_force_calcn_r_mz	ground_force_calcn_l_vx	ground_force_calcn_l_vy	ground_force_calcn_l_vz	ground_force_calcn_l_px	ground_force_calcn_l_py	ground_force_calcn_l_pz	ground_force_calcn_l_mx	ground_force_calcn_l_my	ground_force_calcn_l_mz
0.2	-10.224	28.2135	-4.54893	1.13244	0	-0.278855	-0.101445	0.279942	-0.0451357	0	0	0	0	0	0	0	0	0
0.21	-15.8358	83.2719	-12.1266	1.14302	0	-0.284734	-0.28658	1.50697	-0.219455	0	0	0	0	0	0	0	0	0
0.22	-8.8325	201.428	-22.1891	1.13626	0	-0.287554	-0.130691	2.98044	-0.328323	0	0	0	0	0	0	0	0	0
0.23	11.0277	392.204	-31.3271	1.1233	0	-0.291983	0.116985	4.16061	-0.332327	0	0	0	0	0	0	0	0	0
0.24	18.5004	621.442	-35.1493	1.11394	0	-0.296529	0.140594	4.72266	-0.267118	0	0	0	0	0	0	0	0	0
0.25	-3.19427	807.603	-33.7366	1.11272	0	-0.299523	-0.0179236	4.53161	-0.189302	0	0	0	0	0	0	0	0	0
0.26	-46.0681	912.625	-32.8521	1.11582	0	-0.301752	-0.185724	3.67924	-0.132443	0	0	0	0	0	0	0	0	0
0.27	-91.4334	990.647	-35.8087	1.11727	0	-0.304116	-0.224745	2.43502	-0.0880183	0	0	0	0	0	0	0	0	0
0.28	-121.908	1095.72	-39.0483	1.11366	0	-0.305638	-0.12262	1.10212	-0.0392763	0	0	0	0	0	0	0	0	0
0.29	-133.869	1225.45	-39.5913	1.10491	0	-0.306174	0.00871656	-0.0797925	0.0025779	0	0	0	0	0	0	0	0	0
0.3	-132.402	1346.62	-39.3361	1.09397	0	-0.306484	0.0908558	-0.924066	0.026993	0	0	0	0	0	0	0	0	0
0.31	-125.196	1438.77	-40.4838	1.08274	0	-0.306675	0.114273	-1.31324	0.0369515	0	0	0	0	0	0	0	0	0
0.32	-115.093	1500.05	-42.5624	1.07078	0	-0.306655	0.0953464	-1.24268	0.0352598	0	0	0	0	0	0	0	0	0
0.33	-100.975	1533.72	-44.3561	1.0579	0	-0.30657	0.0542349	-0.823779	0.0238242	0	0	0	0	0	0	0	0	0
0.34	-82.536	1542.44	-45.5092	1.04456	0	-0.306627	0.0132827	-0.248229	0.00732392	0	0	0	0	0	0	0	0	0
0.35	-61.2674	1527.31	-45.6343	1.03124	0	-0.306866	-0.0105281	0.262452	-0.00784176	0	0	0	0	0	0	0	0	0
0.36	-39.5252	1487.98	-43.6503	1.01806	0	-0.307286	-0.0136531	0.513989	-0.015078	0	0	0	0	0	0	0	0	0
0.37	-18.3566	1425.9	-38.6856	1.00489	0	-0.307974	-0.00508875	0.395283	-0.0107243	0	0	0	0	0	0	0	0	0
0.38	3.44842	1345.82	-30.9144	0.991419	0	-0.309042	-0.000220235	-0.0859511	0.00197436	0	0	0	0	0	0	0	0	0
0.39	26.0349	1251.31	-21.3456	0.977239	0	-0.310429	-0.016755	-0.805291	0.0137371	0	0	0	0	0	0	0	0	0
0.4	46.397	1143.92	-11.3251	0.962737	0	-0.312027	-0.0633963	-1.56304	0.0154745	0	0	0	0	0	0	0	0	0
0.41	62.4213	1026.59	-2.12512	0.948444	0	-0.313785	-0.130782	-2.15086	0.00445246	0	0	0	0	0	0	0	0	0
0.42	74.6865	904.585	5.19948	0.934004	0	-0.315704	-0.199646	-2.41807	-0.0138988	0	0	0	0	0	0	0	0	0
0.43	84.3385	782.876	10.1537	0.91874	0	-0.31776	-0.249336	-2.31447	-0.0300181	0	0	0	0	0	0	0	0	0
0.44	89.9464	664.843	13.1916	0.903411	0	-0.31968	-0.256688	-1.89732	-0.0376461	0	0	0	0	0	0	0	0	0
0.45	89.9324	554.042	15.0553	0.888982	0	-0.321154	-0.210702	-1.29806	-0.0352731	0	0	0	0	0	0	0	0	0
0.46	84.8721	453.878	16.0758	0.87562	0	-0.322117	-0.124781	-0.667305	-0.023635	0	0	0	0	0	0	0	0	0
0.47	76.719	366.053	16.4327	0.863042	0	-0.322495	-0.026788	-0.127815	-0.00573782	0	0	0	0	0	0	0	0	0
0.48	67.7952	290.352	16.2912	0.850753	0	-0.322184	0.058643	0.251156	0.0140919	0	0	0	0	0	0	0	0	0
0.49	59.9237	225.959	15.5817	0.83834	0	-0.321153	0.121758	0.459123	0.0316602	0	0	0	0	0	0	0	0	0
0.5	52.494	172.151	14.2422	0.826382	0	-0.319794	0.163989	0.537791	0.0444919	0	0	0	0	0	0	0	0	0
0.51	44.0234	128.285	12.5621	0.81638	0	-0.317833	0.193855	0.564896	0.0553165	0	0	0	0	0	0	0	0	0
0.52	34.4409	93.3444	10.8368	0.810172	0	-0.313556	0.231432	0.627245	0.0728198	0	0	0	0	0	0	0	0	0
0.53	24.527	65.6303	9.05904	0.806824	0	-0.305391	0.297526	0.796131	0.109891	0	0	0	0	0	0	0	0	0
0.54	14.8813	43.969	7.2397	0.804408	0	-0.290938	0.377717	1.11602	0.183758	0	0	0	0	0	0	0	0	0
0.55	0	0	0	0	0	0	0	0	0	0	0	0	0	0	0	0	0	0
0.56	0	0	0	0	0	0	0	0	0	0	0	0	0	0	0	0	0	0
0.57	0	0	0	0	0	0	0	0	0	0	0	0	0	0	0	0	0	0
0.58	0	0	0	0	0	0	0	0	0	0	0	0	0	0	0	0	0	0
0.59	0	0	0	0	0	0	0	0	0	0	0	0	0	0	0	0	0	0
0.6	0	0	0	0	0	0	0	0	0	-1.65164	52.4821	6.32125	1.11391	0	-0.401145	0.0161334	-0.512651	-0.0617467
0.61	0	0	0	0	0	0	0	0	0	7.34143	162.386	13.7145	1.1035	0	-0.402525	-0.110451	-2.44309	-0.206333
0.62	0	0	0	0	0	0	0	0	0	25.4649	375.306	25.0617	1.09562	0	-0.397962	-0.283052	-4.17166	-0.27857
0.63	0	0	0	0	0	0	0	0	0	25.7188	657.748	36.1318	1.0947	0	-0.390427	-0.201118	-5.1435	-0.282546
0.64	0	0	0	0	0	0	0	0	0	-6.64485	890.34	38.7063	1.09996	0	-0.384321	0.0373114	-4.99934	-0.217339
0.65	0	0	0	0	0	0	0	0	0	-50.6308	991.928	28.9143	1.10581	0	-0.38337	0.197804	-3.87526	-0.112963
0.66	0	0	0	0	0	0	0	0	0	-90.9929	1028.29	15.8743	1.10631	0	-0.38657	0.209784	-2.37073	-0.0365982
0.67	0	0	0	0	0	0	0	0	0	-121.337	1099.72	12.4827	1.09958	0	-0.387968	0.129862	-1.17699	-0.0133598
0.68	0	0	0	0	0	0	0	0	0	-134.466	1221.5	18.8855	1.0874	0	-0.38674	0.0754242	-0.685161	-0.0105932
0.69	0	0	0	0	0	0	0	0	0	-130.18	1345.33	26.3161	1.07381	0	-0.386499	0.0850209	-0.878641	-0.0171871
0.7	0	0	0	0	0	0	0	0	0	-116.82	1435.5	31.3762	1.06074	0	-0.387618	0.11997	-1.47422	-0.0322224
0.71	0	0	0	0	0	0	0	0	0	-101.02	1486.24	35.9068	1.04738	0	-0.388501	0.143906	-2.1172	-0.0511506
0.72	0	0	0	0	0	0	0	0	0	-85.1392	1501.54	39.5894	1.03406	0	-0.389044	0.143284	-2.52699	-0.0666264
0.73	0	0	0	0	0	0	0	0	0	-70.4042	1487.61	41.2144	1.02191	0	-0.389827	0.121167	-2.56019	-0.0709305
0.74	0	0	0	0	0	0	0	0	0	-53.0425	1455.84	41.8466	1.0096	0	-0.390503	0.0800293	-2.19654	-0.0631371
0.75	0	0	0	0	0	0	0	0	0	-30.4829	1413.02	42.6273	0.995812	0	-0.390672	0.0317773	-1.47302	-0.0444375
0.76	0	0	0	0	0	0	0	0	0	-7.44708	1357.2	42.478	0.981549	0	-0.390483	0.0023528	-0.428786	-0.0134203
0.77	0	0	0	0	0	0	0	0	0	12.6567	1286.6	39.3352	0.967784	0	-0.390085	0.00881582	0.896164	0.0273983
0.78	0	0	0	0	0	0	0	0	0	31.2417	1202.46	32.4308	0.953717	0	-0.389347	0.0629261	2.42196	0.065321
0.79	0	0	0	0	0	0	0	0	0	48.0784	1107.25	22.8615	0.939227	0	-0.388235	0.173491	3.99553	0.0824958
0.8	0	0	0	0	0	0	0	0	0	61.3033	1005.28	12.8285	0.925149	0	-0.386817	0.329647	5.4057	0.0689831
0.81	0	0	0	0	0	0	0	0	0	71.8895	901.72	4.34083	0.91133	0	-0.385092	0.513689	6.44326	0.0310175
0.82	0	0	0	0	0	0	0	0	0	81.6001	800.04	-1.64745	0.896525	0	-0.383007	0.710798	6.96895	-0.0143506
0.83	0	0	0	0	0	0	0	0	0	88.7138	700.328	-5.11208	0.881054	0	-0.380838	0.881718	6.96049	-0.0508084
0.84	0	0	0	0	0	0	0	0	0	89.9629	602.214	-6.48459	0.866274	0	-0.379191	0.973261	6.51504	-0.0701534
0.85	0	0	0	0	0	0	0	0	0	85.451	508.323	-6.19328	0.85222	0	-0.378115	0.974894	5.79936	-0.0706579
0.86	0	0	0	0	0	0	0	0	0	77.8041	422.115	-4.68363	0.83854	0	-0.37723	0.919529	4.98877	-0.0553536
0.87	0	0	0	0	0	0	0	0	0	68.7388	344.863	-2.68514	0.825833	0	-0.376488	0.842057	4.22461	-0.0328932
0.88	0	0	0	0	0	0	0	0	0	60.0115	276.253	-0.951752	0.81409	0	-0.376108	0.777134	3.57741	-0.0123249
0.89	0	0	0	0	0	0	0	0	0	52.5096	216.147	0.309132	0.802851	0	-0.375824	0.73947	3.0439	0.00435337
0.9	0	0	0	0	0	0	0	0	0	45.4489	164.802	1.33785	0.792418	0	-0.374507	0.710429	2.57608	0.0209124
0.91	0	0	0	0	0	0	0	0	0	37.5625	121.824	2.16836	0.783466	0	-0.371915	0.654198	2.12173	0.0377648
0.92	0	0	0	0	0	0	0	0	0	28.5581	86.8773	2.71023	0.776339	0	-0.368477	0.544904	1.65767	0.0517127
0.93	0	0	0	0	0	0	0	0	0	19.233	59.9414	3.12312	0.776374	0	-0.363021	0.386203	1.20363	0.0627129
0.94	0	0	0	0	0	0	0	0	0	9.72023	40.5745	3.50785	0.795518	0	-0.353781	0.198338	0.82791	0.0715765
0.95	0	0	0	0	0	0	0	0	0	-0.167602	28.8049	3.51083	0.851198	0	-0.336735	-0.00352024	0.605007	0.0737402
0.96	0	0	0	0	0	0	0	0	0	0	0	0	0	0	0	0	0	0
0.97	-19.9727	40.8902	-0.599232	1.04422	0	-0.28089	-0.39944	0.817774	-0.0119842	0	0	0	0	0	0	0	0	0
0.98	-23.7677	89.7479	-6.08871	1.08588	0	-0.274001	-0.404734	1.52829	-0.103683	0	0	0	0	0	0	0	0	0
0.99	-11.3851	198.24	-13.6428	1.08575	0	-0.275805	-0.132615	2.30913	-0.158913	0	0	0	0	0	0	0	0	0
1	12.4626	382.048	-20.9956	1.07315	0	-0.279931	0.0912941	2.79867	-0.153803	0	0	0	0	0	0	0	0	0
1.01	19.2069	612.453	-25.0233	1.06559	0	-0.283568	0.0907595	2.89405	-0.118244	0	0	0	0	0	0	0	0	0
1.02	-5.45008	806.999	-25.6217	1.06616	0	-0.285773	-0.0174816	2.58852	-0.0821838	0	0	0	0	0	0	0	0	0
1.03	-47.0927	920.784	-27.2138	1.06994	0	-0.286992	-0.104202	2.03742	-0.0602163	0	0	0	0	0	0	0	0	0
1.04	-83.5728	1000.58	-33.0172	1.06978	0	-0.287748	-0.123555	1.47927	-0.0488128	0	0	0	0	0	0	0	0	0
1.05	-103.173	1100.01	-40.6546	1.06309	0	-0.28784	-0.101777	1.08512	-0.0401045	0	0	0	0	0	0	0	0	0
